<?xml version="1.0" encoding="UTF-8"?>
<!DOCTYPE svg PUBLIC "-//W3C//DTD SVG 1.1//EN" "http://www.w3.org/Graphics/SVG/1.1/DTD/svg11.dtd">
<svg xmlns="http://www.w3.org/2000/svg" version="1.1" width="1154px" height="927px" style="shape-rendering:geometricPrecision; text-rendering:geometricPrecision; image-rendering:optimizeQuality; fill-rule:evenodd; clip-rule:evenodd" xmlns:xlink="http://www.w3.org/1999/xlink">
<g><path style="opacity:1" fill="#92b4aa" d="M -0.5,-0.5 C 110.833,-0.5 222.167,-0.5 333.5,-0.5C 464.283,135.547 513.283,296.88 480.5,483.5C 326.9,466.778 196.4,403.445 89,293.5C 53.4951,255.475 23.6618,213.475 -0.5,167.5C -0.5,111.5 -0.5,55.5 -0.5,-0.5 Z"/></g>
<g><path style="opacity:0.999" fill="#6b9896" d="M 333.5,-0.5 C 606.833,-0.5 880.167,-0.5 1153.5,-0.5C 1153.5,-0.166667 1153.5,0.166667 1153.5,0.5C 1131.7,132.951 1070.7,243.451 970.5,332C 838.895,442.871 686.561,494.204 513.5,486C 502.473,485.437 491.473,484.603 480.5,483.5C 513.283,296.88 464.283,135.547 333.5,-0.5 Z"/></g>
<g><path style="opacity:0.999" fill="#6b9896" d="M -0.5,167.5 C 23.6618,213.475 53.4951,255.475 89,293.5C 196.4,403.445 326.9,466.778 480.5,483.5C 458.905,580.703 414.739,665.703 348,738.5C 253.435,837.547 138.602,900.213 3.5,926.5C 2.16667,926.5 0.833333,926.5 -0.5,926.5C -0.5,673.5 -0.5,420.5 -0.5,167.5 Z"/></g>
</svg>
