<?xml version="1.0" encoding="UTF-8"?>
<!DOCTYPE svg PUBLIC "-//W3C//DTD SVG 1.1//EN" "http://www.w3.org/Graphics/SVG/1.1/DTD/svg11.dtd">
<svg xmlns="http://www.w3.org/2000/svg" version="1.1" width="629px" height="1544px" style="shape-rendering:geometricPrecision; text-rendering:geometricPrecision; image-rendering:optimizeQuality; fill-rule:evenodd; clip-rule:evenodd" xmlns:xlink="http://www.w3.org/1999/xlink">
<g><path style="opacity:1" fill="#2c6975" d="M -0.5,-0.5 C 209.167,-0.5 418.833,-0.5 628.5,-0.5C 628.5,162.167 628.5,324.833 628.5,487.5C 609.164,487.333 589.83,487.5 570.5,488C 555.445,489.073 540.445,490.407 525.5,492C 518.164,493.192 510.83,494.359 503.5,495.5C 499.575,495.43 495.909,496.097 492.5,497.5C 479.76,499.527 467.093,502.194 454.5,505.5C 443.393,508.862 432.393,512.196 421.5,515.5C 416.085,516.194 411.085,517.86 406.5,520.5C 404.5,521.167 402.5,521.833 400.5,522.5C 398.447,522.402 396.78,523.069 395.5,524.5C 394.791,525.404 393.791,525.737 392.5,525.5C 390.447,525.402 388.78,526.069 387.5,527.5C 385.447,527.402 383.78,528.069 382.5,529.5C 380.447,529.402 378.78,530.069 377.5,531.5C 375.447,531.402 373.78,532.069 372.5,533.5C 371.508,533.328 370.842,533.662 370.5,534.5C 367.759,534.707 365.426,535.707 363.5,537.5C 362.508,537.328 361.842,537.662 361.5,538.5C 358.759,538.707 356.426,539.707 354.5,541.5C 345.516,545.325 336.849,549.659 328.5,554.5C 325.008,555.41 322.008,557.076 319.5,559.5C 318.508,559.328 317.842,559.662 317.5,560.5C 315.326,560.75 313.659,561.75 312.5,563.5C 311.508,563.328 310.842,563.662 310.5,564.5C 308.326,564.75 306.659,565.75 305.5,567.5C 303.326,567.75 301.659,568.75 300.5,570.5C 298.326,570.75 296.659,571.75 295.5,573.5C 293.973,573.427 292.973,574.094 292.5,575.5C 290.326,575.75 288.659,576.75 287.5,578.5C 285.973,578.427 284.973,579.094 284.5,580.5C 282.973,580.427 281.973,581.094 281.5,582.5C 279.973,582.427 278.973,583.094 278.5,584.5C 276.973,584.427 275.973,585.094 275.5,586.5C 273.973,586.427 272.973,587.094 272.5,588.5C 270.596,588.738 269.262,589.738 268.5,591.5C 266.973,591.427 265.973,592.094 265.5,593.5C 263.596,593.738 262.262,594.738 261.5,596.5C 259.973,596.427 258.973,597.094 258.5,598.5C 256.596,598.738 255.262,599.738 254.5,601.5C 252.251,602.08 250.585,603.413 249.5,605.5C 247.596,605.738 246.262,606.738 245.5,608.5C 243.251,609.08 241.585,610.413 240.5,612.5C 238.251,613.08 236.585,614.413 235.5,616.5C 234.833,616.5 234.5,616.833 234.5,617.5C 231.911,618.419 229.911,620.086 228.5,622.5C 225.573,623.757 223.239,625.757 221.5,628.5C 220.833,628.5 220.5,628.833 220.5,629.5C 216.564,631.766 213.231,634.766 210.5,638.5C 208.833,639.5 207.5,640.833 206.5,642.5C 200.167,646.833 194.833,652.167 190.5,658.5C 188.833,659.5 187.5,660.833 186.5,662.5C 182.766,665.231 179.766,668.564 177.5,672.5C 176.833,672.5 176.5,672.833 176.5,673.5C 173.757,675.239 171.757,677.573 170.5,680.5C 168.086,681.911 166.419,683.911 165.5,686.5C 163.413,687.585 162.08,689.251 161.5,691.5C 160.833,691.5 160.5,691.833 160.5,692.5C 158.738,693.262 157.738,694.596 157.5,696.5C 155.413,697.585 154.08,699.251 153.5,701.5C 151.738,702.262 150.738,703.596 150.5,705.5C 148.738,706.262 147.738,707.596 147.5,709.5C 145.1,711.296 143.433,713.63 142.5,716.5C 141.094,716.973 140.427,717.973 140.5,719.5C 138.738,720.262 137.738,721.596 137.5,723.5C 136.094,723.973 135.427,724.973 135.5,726.5C 134.094,726.973 133.427,727.973 133.5,729.5C 132.094,729.973 131.427,730.973 131.5,732.5C 129.75,733.659 128.75,735.326 128.5,737.5C 127.094,737.973 126.427,738.973 126.5,740.5C 124.75,741.659 123.75,743.326 123.5,745.5C 122.094,745.973 121.427,746.973 121.5,748.5C 120.662,748.842 120.328,749.508 120.5,750.5C 118.75,751.659 117.75,753.326 117.5,755.5C 115.412,757.336 114.079,759.669 113.5,762.5C 112.662,762.842 112.328,763.508 112.5,764.5C 110.076,767.008 108.41,770.008 107.5,773.5C 104.659,777.849 102.326,782.516 100.5,787.5C 98.0431,790.751 96.3764,794.418 95.5,798.5C 94.6618,798.842 94.3284,799.508 94.5,800.5C 92.7073,802.426 91.7073,804.759 91.5,807.5C 90.0687,808.78 89.4021,810.447 89.5,812.5C 88.6618,812.842 88.3284,813.508 88.5,814.5C 87.0687,815.78 86.4021,817.447 86.5,819.5C 85.5879,822.276 84.5879,824.943 83.5,827.5C 81.7329,829.792 80.7329,832.458 80.5,835.5C 78.224,843.993 75.5574,852.327 72.5,860.5C 71.0762,862.515 70.4095,864.848 70.5,867.5C 67.7472,879.215 64.9138,890.881 62,902.5C 54.8911,939.993 52.5577,977.993 55,1016.5C 55.9029,1039.38 58.5695,1062.05 63,1084.5C 66.3503,1096.74 69.517,1109.07 72.5,1121.5C 72.4095,1124.15 73.0762,1126.49 74.5,1128.5C 76.2109,1135.63 78.5442,1142.63 81.5,1149.5C 81.4021,1151.55 82.0687,1153.22 83.5,1154.5C 84.404,1155.21 84.7373,1156.21 84.5,1157.5C 84.4021,1159.55 85.0687,1161.22 86.5,1162.5C 86.4021,1164.55 87.0687,1166.22 88.5,1167.5C 88.4021,1169.55 89.0687,1171.22 90.5,1172.5C 90.3284,1173.49 90.6618,1174.16 91.5,1174.5C 91.4021,1176.55 92.0687,1178.22 93.5,1179.5C 93.3284,1180.49 93.6618,1181.16 94.5,1181.5C 95.0421,1184.91 96.3754,1187.91 98.5,1190.5C 101.659,1198.15 105.325,1205.48 109.5,1212.5C 110.079,1215.33 111.412,1217.66 113.5,1219.5C 113.328,1220.49 113.662,1221.16 114.5,1221.5C 114.75,1223.67 115.75,1225.34 117.5,1226.5C 117.328,1227.49 117.662,1228.16 118.5,1228.5C 118.75,1230.67 119.75,1232.34 121.5,1233.5C 121.75,1235.67 122.75,1237.34 124.5,1238.5C 125.383,1241.7 127.05,1244.37 129.5,1246.5C 129.427,1248.03 130.094,1249.03 131.5,1249.5C 131.427,1251.03 132.094,1252.03 133.5,1252.5C 133.427,1254.03 134.094,1255.03 135.5,1255.5C 135.427,1257.03 136.094,1258.03 137.5,1258.5C 137.427,1260.03 138.094,1261.03 139.5,1261.5C 140.433,1264.37 142.1,1266.7 144.5,1268.5C 144.738,1270.4 145.738,1271.74 147.5,1272.5C 147.427,1274.03 148.094,1275.03 149.5,1275.5C 149.738,1277.4 150.738,1278.74 152.5,1279.5C 153.08,1281.75 154.413,1283.42 156.5,1284.5C 156.738,1286.4 157.738,1287.74 159.5,1288.5C 160.419,1291.09 162.086,1293.09 164.5,1294.5C 165.419,1297.09 167.086,1299.09 169.5,1300.5C 170.757,1303.43 172.757,1305.76 175.5,1307.5C 177.43,1311.1 180.097,1314.1 183.5,1316.5C 184.5,1316.83 185.167,1317.5 185.5,1318.5C 192.574,1327.08 200.24,1335.25 208.5,1343C 209.094,1343.46 209.761,1343.63 210.5,1343.5C 211.833,1344.17 212.833,1345.17 213.5,1346.5C 215.9,1349.9 218.9,1352.57 222.5,1354.5C 222.5,1355.17 222.833,1355.5 223.5,1355.5C 224.911,1357.91 226.911,1359.58 229.5,1360.5C 230.167,1360.5 230.5,1360.83 230.5,1361.5C 231.585,1363.59 233.251,1364.92 235.5,1365.5C 236.167,1365.5 236.5,1365.83 236.5,1366.5C 237.585,1368.59 239.251,1369.92 241.5,1370.5C 242.585,1372.59 244.251,1373.92 246.5,1374.5C 247.262,1376.26 248.596,1377.26 250.5,1377.5C 251.262,1379.26 252.596,1380.26 254.5,1380.5C 255.262,1382.26 256.596,1383.26 258.5,1383.5C 259.262,1385.26 260.596,1386.26 262.5,1386.5C 263.262,1388.26 264.596,1389.26 266.5,1389.5C 266.973,1390.91 267.973,1391.57 269.5,1391.5C 269.973,1392.91 270.973,1393.57 272.5,1393.5C 274.296,1395.9 276.63,1397.57 279.5,1398.5C 279.973,1399.91 280.973,1400.57 282.5,1400.5C 284.629,1402.95 287.296,1404.62 290.5,1405.5C 290.973,1406.91 291.973,1407.57 293.5,1407.5C 294.659,1409.25 296.326,1410.25 298.5,1410.5C 299.659,1412.25 301.326,1413.25 303.5,1413.5C 304.659,1415.25 306.326,1416.25 308.5,1416.5C 309.659,1418.25 311.326,1419.25 313.5,1419.5C 313.842,1420.34 314.508,1420.67 315.5,1420.5C 317.336,1422.59 319.669,1423.92 322.5,1424.5C 323.514,1425.67 324.847,1426.34 326.5,1426.5C 335.248,1432.21 344.581,1436.87 354.5,1440.5C 355.514,1441.67 356.847,1442.34 358.5,1442.5C 360.426,1444.29 362.759,1445.29 365.5,1445.5C 365.842,1446.34 366.508,1446.67 367.5,1446.5C 368.78,1447.93 370.447,1448.6 372.5,1448.5C 372.842,1449.34 373.508,1449.67 374.5,1449.5C 375.78,1450.93 377.447,1451.6 379.5,1451.5C 380.78,1452.93 382.447,1453.6 384.5,1453.5C 385.78,1454.93 387.447,1455.6 389.5,1455.5C 390.78,1456.93 392.447,1457.6 394.5,1457.5C 395.791,1457.26 396.791,1457.6 397.5,1458.5C 399.792,1460.27 402.458,1461.27 405.5,1461.5C 412.575,1463.86 419.575,1466.19 426.5,1468.5C 428.515,1469.92 430.848,1470.59 433.5,1470.5C 497.088,1488.46 562.088,1496.46 628.5,1494.5C 628.5,1510.83 628.5,1527.17 628.5,1543.5C 418.833,1543.5 209.167,1543.5 -0.5,1543.5C -0.5,1028.83 -0.5,514.167 -0.5,-0.5 Z"/></g>
<g><path style="opacity:1" fill="#5ba296" d="M 628.5,487.5 C 628.5,823.167 628.5,1158.83 628.5,1494.5C 562.088,1496.46 497.088,1488.46 433.5,1470.5C 431.485,1469.08 429.152,1468.41 426.5,1468.5C 419.575,1466.19 412.575,1463.86 405.5,1461.5C 403.208,1459.73 400.542,1458.73 397.5,1458.5C 396.791,1457.6 395.791,1457.26 394.5,1457.5C 393.22,1456.07 391.553,1455.4 389.5,1455.5C 388.22,1454.07 386.553,1453.4 384.5,1453.5C 383.22,1452.07 381.553,1451.4 379.5,1451.5C 378.22,1450.07 376.553,1449.4 374.5,1449.5C 373.508,1449.67 372.842,1449.34 372.5,1448.5C 371.22,1447.07 369.553,1446.4 367.5,1446.5C 366.508,1446.67 365.842,1446.34 365.5,1445.5C 363.574,1443.71 361.241,1442.71 358.5,1442.5C 356.847,1442.34 355.514,1441.67 354.5,1440.5C 345.484,1435.33 336.151,1430.66 326.5,1426.5C 324.847,1426.34 323.514,1425.67 322.5,1424.5C 320.664,1422.41 318.331,1421.08 315.5,1420.5C 314.508,1420.67 313.842,1420.34 313.5,1419.5C 312.341,1417.75 310.674,1416.75 308.5,1416.5C 307.341,1414.75 305.674,1413.75 303.5,1413.5C 302.341,1411.75 300.674,1410.75 298.5,1410.5C 297.341,1408.75 295.674,1407.75 293.5,1407.5C 293.027,1406.09 292.027,1405.43 290.5,1405.5C 288.371,1403.05 285.704,1401.38 282.5,1400.5C 282.027,1399.09 281.027,1398.43 279.5,1398.5C 277.704,1396.1 275.37,1394.43 272.5,1393.5C 272.027,1392.09 271.027,1391.43 269.5,1391.5C 269.027,1390.09 268.027,1389.43 266.5,1389.5C 265.738,1387.74 264.404,1386.74 262.5,1386.5C 261.738,1384.74 260.404,1383.74 258.5,1383.5C 257.738,1381.74 256.404,1380.74 254.5,1380.5C 253.738,1378.74 252.404,1377.74 250.5,1377.5C 249.738,1375.74 248.404,1374.74 246.5,1374.5C 245.415,1372.41 243.749,1371.08 241.5,1370.5C 240.415,1368.41 238.749,1367.08 236.5,1366.5C 236.5,1365.83 236.167,1365.5 235.5,1365.5C 234.415,1363.41 232.749,1362.08 230.5,1361.5C 230.5,1360.83 230.167,1360.5 229.5,1360.5C 228.089,1358.09 226.089,1356.42 223.5,1355.5C 222.833,1355.5 222.5,1355.17 222.5,1354.5C 220.1,1351.1 217.1,1348.43 213.5,1346.5C 212.833,1345.17 211.833,1344.17 210.5,1343.5C 202.5,1334.83 194.167,1326.5 185.5,1318.5C 185.167,1317.5 184.5,1316.83 183.5,1316.5C 181.57,1312.9 178.903,1309.9 175.5,1307.5C 174.243,1304.57 172.243,1302.24 169.5,1300.5C 168.581,1297.91 166.914,1295.91 164.5,1294.5C 163.581,1291.91 161.914,1289.91 159.5,1288.5C 159.262,1286.6 158.262,1285.26 156.5,1284.5C 155.92,1282.25 154.587,1280.58 152.5,1279.5C 152.262,1277.6 151.262,1276.26 149.5,1275.5C 149.573,1273.97 148.906,1272.97 147.5,1272.5C 147.262,1270.6 146.262,1269.26 144.5,1268.5C 143.567,1265.63 141.9,1263.3 139.5,1261.5C 139.573,1259.97 138.906,1258.97 137.5,1258.5C 137.573,1256.97 136.906,1255.97 135.5,1255.5C 135.573,1253.97 134.906,1252.97 133.5,1252.5C 133.573,1250.97 132.906,1249.97 131.5,1249.5C 131.573,1247.97 130.906,1246.97 129.5,1246.5C 128.617,1243.3 126.95,1240.63 124.5,1238.5C 124.25,1236.33 123.25,1234.66 121.5,1233.5C 121.25,1231.33 120.25,1229.66 118.5,1228.5C 117.662,1228.16 117.328,1227.49 117.5,1226.5C 117.25,1224.33 116.25,1222.66 114.5,1221.5C 113.662,1221.16 113.328,1220.49 113.5,1219.5C 112.921,1216.67 111.588,1214.34 109.5,1212.5C 105.325,1205.48 101.659,1198.15 98.5,1190.5C 97.9579,1187.09 96.6246,1184.09 94.5,1181.5C 93.6618,1181.16 93.3284,1180.49 93.5,1179.5C 93.5979,1177.45 92.9313,1175.78 91.5,1174.5C 90.6618,1174.16 90.3284,1173.49 90.5,1172.5C 90.5979,1170.45 89.9313,1168.78 88.5,1167.5C 88.5979,1165.45 87.9313,1163.78 86.5,1162.5C 86.5979,1160.45 85.9313,1158.78 84.5,1157.5C 84.7373,1156.21 84.404,1155.21 83.5,1154.5C 83.5979,1152.45 82.9313,1150.78 81.5,1149.5C 78.5442,1142.63 76.2109,1135.63 74.5,1128.5C 74.5905,1125.85 73.9238,1123.51 72.5,1121.5C 69.517,1109.07 66.3503,1096.74 63,1084.5C 58.5695,1062.05 55.9029,1039.38 55,1016.5C 52.5577,977.993 54.8911,939.993 62,902.5C 64.9138,890.881 67.7472,879.215 70.5,867.5C 71.9238,865.485 72.5905,863.152 72.5,860.5C 75.5574,852.327 78.224,843.993 80.5,835.5C 82.2671,833.208 83.2671,830.542 83.5,827.5C 84.5879,824.943 85.5879,822.276 86.5,819.5C 87.9313,818.22 88.5979,816.553 88.5,814.5C 88.3284,813.508 88.6618,812.842 89.5,812.5C 90.9313,811.22 91.5979,809.553 91.5,807.5C 93.2927,805.574 94.2927,803.241 94.5,800.5C 94.3284,799.508 94.6618,798.842 95.5,798.5C 97.9569,795.249 99.6236,791.582 100.5,787.5C 102.326,782.516 104.659,777.849 107.5,773.5C 109.924,770.992 111.59,767.992 112.5,764.5C 112.328,763.508 112.662,762.842 113.5,762.5C 115.588,760.664 116.921,758.331 117.5,755.5C 119.25,754.341 120.25,752.674 120.5,750.5C 120.328,749.508 120.662,748.842 121.5,748.5C 122.906,748.027 123.573,747.027 123.5,745.5C 125.25,744.341 126.25,742.674 126.5,740.5C 127.906,740.027 128.573,739.027 128.5,737.5C 130.25,736.341 131.25,734.674 131.5,732.5C 132.906,732.027 133.573,731.027 133.5,729.5C 134.906,729.027 135.573,728.027 135.5,726.5C 136.906,726.027 137.573,725.027 137.5,723.5C 139.262,722.738 140.262,721.404 140.5,719.5C 141.906,719.027 142.573,718.027 142.5,716.5C 144.9,714.704 146.567,712.37 147.5,709.5C 149.262,708.738 150.262,707.404 150.5,705.5C 152.262,704.738 153.262,703.404 153.5,701.5C 155.587,700.415 156.92,698.749 157.5,696.5C 159.262,695.738 160.262,694.404 160.5,692.5C 160.5,691.833 160.833,691.5 161.5,691.5C 163.587,690.415 164.92,688.749 165.5,686.5C 167.914,685.089 169.581,683.089 170.5,680.5C 173.243,678.761 175.243,676.427 176.5,673.5C 176.5,672.833 176.833,672.5 177.5,672.5C 181.234,669.769 184.234,666.436 186.5,662.5C 187.5,660.833 188.833,659.5 190.5,658.5C 196.167,653.5 201.5,648.167 206.5,642.5C 207.5,640.833 208.833,639.5 210.5,638.5C 214.436,636.234 217.769,633.234 220.5,629.5C 220.5,628.833 220.833,628.5 221.5,628.5C 224.427,627.243 226.761,625.243 228.5,622.5C 231.089,621.581 233.089,619.914 234.5,617.5C 234.5,616.833 234.833,616.5 235.5,616.5C 237.749,615.92 239.415,614.587 240.5,612.5C 242.749,611.92 244.415,610.587 245.5,608.5C 247.404,608.262 248.738,607.262 249.5,605.5C 251.749,604.92 253.415,603.587 254.5,601.5C 256.404,601.262 257.738,600.262 258.5,598.5C 260.027,598.573 261.027,597.906 261.5,596.5C 263.404,596.262 264.738,595.262 265.5,593.5C 267.027,593.573 268.027,592.906 268.5,591.5C 270.404,591.262 271.738,590.262 272.5,588.5C 274.027,588.573 275.027,587.906 275.5,586.5C 277.027,586.573 278.027,585.906 278.5,584.5C 280.027,584.573 281.027,583.906 281.5,582.5C 283.027,582.573 284.027,581.906 284.5,580.5C 286.027,580.573 287.027,579.906 287.5,578.5C 289.674,578.25 291.341,577.25 292.5,575.5C 294.027,575.573 295.027,574.906 295.5,573.5C 297.674,573.25 299.341,572.25 300.5,570.5C 302.674,570.25 304.341,569.25 305.5,567.5C 307.674,567.25 309.341,566.25 310.5,564.5C 310.842,563.662 311.508,563.328 312.5,563.5C 314.674,563.25 316.341,562.25 317.5,560.5C 317.842,559.662 318.508,559.328 319.5,559.5C 322.992,558.59 325.992,556.924 328.5,554.5C 336.849,549.659 345.516,545.325 354.5,541.5C 357.241,541.293 359.574,540.293 361.5,538.5C 361.842,537.662 362.508,537.328 363.5,537.5C 366.241,537.293 368.574,536.293 370.5,534.5C 370.842,533.662 371.508,533.328 372.5,533.5C 374.553,533.598 376.22,532.931 377.5,531.5C 379.553,531.598 381.22,530.931 382.5,529.5C 384.553,529.598 386.22,528.931 387.5,527.5C 389.553,527.598 391.22,526.931 392.5,525.5C 393.791,525.737 394.791,525.404 395.5,524.5C 397.553,524.598 399.22,523.931 400.5,522.5C 402.5,521.833 404.5,521.167 406.5,520.5C 411.784,519.405 416.784,517.739 421.5,515.5C 432.393,512.196 443.393,508.862 454.5,505.5C 467.093,502.194 479.76,499.527 492.5,497.5C 496.425,497.57 500.091,496.903 503.5,495.5C 510.83,494.359 518.164,493.192 525.5,492C 540.445,490.407 555.445,489.073 570.5,488C 589.83,487.5 609.164,487.333 628.5,487.5 Z"/></g>
<g><path style="opacity:1" fill="#408183" d="M 503.5,495.5 C 500.091,496.903 496.425,497.57 492.5,497.5C 495.909,496.097 499.575,495.43 503.5,495.5 Z"/></g>
<g><path style="opacity:1" fill="#418283" d="M 421.5,515.5 C 416.784,517.739 411.784,519.405 406.5,520.5C 411.085,517.86 416.085,516.194 421.5,515.5 Z"/></g>
<g><path style="opacity:1" fill="#428484" d="M 400.5,522.5 C 399.22,523.931 397.553,524.598 395.5,524.5C 396.78,523.069 398.447,522.402 400.5,522.5 Z"/></g>
<g><path style="opacity:1" fill="#428484" d="M 392.5,525.5 C 391.22,526.931 389.553,527.598 387.5,527.5C 388.78,526.069 390.447,525.402 392.5,525.5 Z"/></g>
<g><path style="opacity:1" fill="#428484" d="M 387.5,527.5 C 386.22,528.931 384.553,529.598 382.5,529.5C 383.78,528.069 385.447,527.402 387.5,527.5 Z"/></g>
<g><path style="opacity:1" fill="#428484" d="M 382.5,529.5 C 381.22,530.931 379.553,531.598 377.5,531.5C 378.78,530.069 380.447,529.402 382.5,529.5 Z"/></g>
<g><path style="opacity:1" fill="#418283" d="M 377.5,531.5 C 376.22,532.931 374.553,533.598 372.5,533.5C 373.78,532.069 375.447,531.402 377.5,531.5 Z"/></g>
<g><path style="opacity:1" fill="#418384" d="M 370.5,534.5 C 368.574,536.293 366.241,537.293 363.5,537.5C 365.426,535.707 367.759,534.707 370.5,534.5 Z"/></g>
<g><path style="opacity:1" fill="#418384" d="M 361.5,538.5 C 359.574,540.293 357.241,541.293 354.5,541.5C 356.426,539.707 358.759,538.707 361.5,538.5 Z"/></g>
<g><path style="opacity:1" fill="#418384" d="M 328.5,554.5 C 325.992,556.924 322.992,558.59 319.5,559.5C 322.008,557.076 325.008,555.41 328.5,554.5 Z"/></g>
<g><path style="opacity:1" fill="#418384" d="M 317.5,560.5 C 316.341,562.25 314.674,563.25 312.5,563.5C 313.659,561.75 315.326,560.75 317.5,560.5 Z"/></g>
<g><path style="opacity:1" fill="#418384" d="M 310.5,564.5 C 309.341,566.25 307.674,567.25 305.5,567.5C 306.659,565.75 308.326,564.75 310.5,564.5 Z"/></g>
<g><path style="opacity:1" fill="#418384" d="M 305.5,567.5 C 304.341,569.25 302.674,570.25 300.5,570.5C 301.659,568.75 303.326,567.75 305.5,567.5 Z"/></g>
<g><path style="opacity:1" fill="#418384" d="M 300.5,570.5 C 299.341,572.25 297.674,573.25 295.5,573.5C 296.659,571.75 298.326,570.75 300.5,570.5 Z"/></g>
<g><path style="opacity:1" fill="#428484" d="M 295.5,573.5 C 295.027,574.906 294.027,575.573 292.5,575.5C 292.973,574.094 293.973,573.427 295.5,573.5 Z"/></g>
<g><path style="opacity:1" fill="#418384" d="M 292.5,575.5 C 291.341,577.25 289.674,578.25 287.5,578.5C 288.659,576.75 290.326,575.75 292.5,575.5 Z"/></g>
<g><path style="opacity:1" fill="#428384" d="M 287.5,578.5 C 287.027,579.906 286.027,580.573 284.5,580.5C 284.973,579.094 285.973,578.427 287.5,578.5 Z"/></g>
<g><path style="opacity:1" fill="#428484" d="M 284.5,580.5 C 284.027,581.906 283.027,582.573 281.5,582.5C 281.973,581.094 282.973,580.427 284.5,580.5 Z"/></g>
<g><path style="opacity:1" fill="#428484" d="M 281.5,582.5 C 281.027,583.906 280.027,584.573 278.5,584.5C 278.973,583.094 279.973,582.427 281.5,582.5 Z"/></g>
<g><path style="opacity:1" fill="#428484" d="M 278.5,584.5 C 278.027,585.906 277.027,586.573 275.5,586.5C 275.973,585.094 276.973,584.427 278.5,584.5 Z"/></g>
<g><path style="opacity:1" fill="#428384" d="M 275.5,586.5 C 275.027,587.906 274.027,588.573 272.5,588.5C 272.973,587.094 273.973,586.427 275.5,586.5 Z"/></g>
<g><path style="opacity:1" fill="#428384" d="M 272.5,588.5 C 271.738,590.262 270.404,591.262 268.5,591.5C 269.262,589.738 270.596,588.738 272.5,588.5 Z"/></g>
<g><path style="opacity:1" fill="#428484" d="M 268.5,591.5 C 268.027,592.906 267.027,593.573 265.5,593.5C 265.973,592.094 266.973,591.427 268.5,591.5 Z"/></g>
<g><path style="opacity:1" fill="#428484" d="M 265.5,593.5 C 264.738,595.262 263.404,596.262 261.5,596.5C 262.262,594.738 263.596,593.738 265.5,593.5 Z"/></g>
<g><path style="opacity:1" fill="#428484" d="M 261.5,596.5 C 261.027,597.906 260.027,598.573 258.5,598.5C 258.973,597.094 259.973,596.427 261.5,596.5 Z"/></g>
<g><path style="opacity:1" fill="#418283" d="M 258.5,598.5 C 257.738,600.262 256.404,601.262 254.5,601.5C 255.262,599.738 256.596,598.738 258.5,598.5 Z"/></g>
<g><path style="opacity:1" fill="#428484" d="M 254.5,601.5 C 253.415,603.587 251.749,604.92 249.5,605.5C 250.585,603.413 252.251,602.08 254.5,601.5 Z"/></g>
<g><path style="opacity:1" fill="#428484" d="M 249.5,605.5 C 248.738,607.262 247.404,608.262 245.5,608.5C 246.262,606.738 247.596,605.738 249.5,605.5 Z"/></g>
<g><path style="opacity:1" fill="#428484" d="M 245.5,608.5 C 244.415,610.587 242.749,611.92 240.5,612.5C 241.585,610.413 243.251,609.08 245.5,608.5 Z"/></g>
<g><path style="opacity:1" fill="#428484" d="M 240.5,612.5 C 239.415,614.587 237.749,615.92 235.5,616.5C 236.585,614.413 238.251,613.08 240.5,612.5 Z"/></g>
<g><path style="opacity:1" fill="#418384" d="M 234.5,617.5 C 233.089,619.914 231.089,621.581 228.5,622.5C 229.911,620.086 231.911,618.419 234.5,617.5 Z"/></g>
<g><path style="opacity:1" fill="#418384" d="M 228.5,622.5 C 226.761,625.243 224.427,627.243 221.5,628.5C 223.239,625.757 225.573,623.757 228.5,622.5 Z"/></g>
<g><path style="opacity:1" fill="#418384" d="M 220.5,629.5 C 217.769,633.234 214.436,636.234 210.5,638.5C 213.231,634.766 216.564,631.766 220.5,629.5 Z"/></g>
<g><path style="opacity:1" fill="#3f8082" d="M 206.5,642.5 C 201.5,648.167 196.167,653.5 190.5,658.5C 194.833,652.167 200.167,646.833 206.5,642.5 Z"/></g>
<g><path style="opacity:1" fill="#408283" d="M 186.5,662.5 C 184.234,666.436 181.234,669.769 177.5,672.5C 179.766,668.564 182.766,665.231 186.5,662.5 Z"/></g>
<g><path style="opacity:1" fill="#408283" d="M 176.5,673.5 C 175.243,676.427 173.243,678.761 170.5,680.5C 171.757,677.573 173.757,675.239 176.5,673.5 Z"/></g>
<g><path style="opacity:1" fill="#418384" d="M 170.5,680.5 C 169.581,683.089 167.914,685.089 165.5,686.5C 166.419,683.911 168.086,681.911 170.5,680.5 Z"/></g>
<g><path style="opacity:1" fill="#418384" d="M 165.5,686.5 C 164.92,688.749 163.587,690.415 161.5,691.5C 162.08,689.251 163.413,687.585 165.5,686.5 Z"/></g>
<g><path style="opacity:1" fill="#418283" d="M 160.5,692.5 C 160.262,694.404 159.262,695.738 157.5,696.5C 157.738,694.596 158.738,693.262 160.5,692.5 Z"/></g>
<g><path style="opacity:1" fill="#418384" d="M 157.5,696.5 C 156.92,698.749 155.587,700.415 153.5,701.5C 154.08,699.251 155.413,697.585 157.5,696.5 Z"/></g>
<g><path style="opacity:1" fill="#408283" d="M 153.5,701.5 C 153.262,703.404 152.262,704.738 150.5,705.5C 150.738,703.596 151.738,702.262 153.5,701.5 Z"/></g>
<g><path style="opacity:1" fill="#408283" d="M 150.5,705.5 C 150.262,707.404 149.262,708.738 147.5,709.5C 147.738,707.596 148.738,706.262 150.5,705.5 Z"/></g>
<g><path style="opacity:1" fill="#418384" d="M 147.5,709.5 C 146.567,712.37 144.9,714.704 142.5,716.5C 143.433,713.63 145.1,711.296 147.5,709.5 Z"/></g>
<g><path style="opacity:1" fill="#428384" d="M 142.5,716.5 C 142.573,718.027 141.906,719.027 140.5,719.5C 140.427,717.973 141.094,716.973 142.5,716.5 Z"/></g>
<g><path style="opacity:1" fill="#418283" d="M 140.5,719.5 C 140.262,721.404 139.262,722.738 137.5,723.5C 137.738,721.596 138.738,720.262 140.5,719.5 Z"/></g>
<g><path style="opacity:1" fill="#418383" d="M 137.5,723.5 C 137.573,725.027 136.906,726.027 135.5,726.5C 135.427,724.973 136.094,723.973 137.5,723.5 Z"/></g>
<g><path style="opacity:1" fill="#418383" d="M 135.5,726.5 C 135.573,728.027 134.906,729.027 133.5,729.5C 133.427,727.973 134.094,726.973 135.5,726.5 Z"/></g>
<g><path style="opacity:1" fill="#418383" d="M 133.5,729.5 C 133.573,731.027 132.906,732.027 131.5,732.5C 131.427,730.973 132.094,729.973 133.5,729.5 Z"/></g>
<g><path style="opacity:1" fill="#428384" d="M 131.5,732.5 C 131.25,734.674 130.25,736.341 128.5,737.5C 128.75,735.326 129.75,733.659 131.5,732.5 Z"/></g>
<g><path style="opacity:1" fill="#428384" d="M 128.5,737.5 C 128.573,739.027 127.906,740.027 126.5,740.5C 126.427,738.973 127.094,737.973 128.5,737.5 Z"/></g>
<g><path style="opacity:1" fill="#428484" d="M 126.5,740.5 C 126.25,742.674 125.25,744.341 123.5,745.5C 123.75,743.326 124.75,741.659 126.5,740.5 Z"/></g>
<g><path style="opacity:1" fill="#428384" d="M 123.5,745.5 C 123.573,747.027 122.906,748.027 121.5,748.5C 121.427,746.973 122.094,745.973 123.5,745.5 Z"/></g>
<g><path style="opacity:1" fill="#428484" d="M 120.5,750.5 C 120.25,752.674 119.25,754.341 117.5,755.5C 117.75,753.326 118.75,751.659 120.5,750.5 Z"/></g>
<g><path style="opacity:1" fill="#418384" d="M 117.5,755.5 C 116.921,758.331 115.588,760.664 113.5,762.5C 114.079,759.669 115.412,757.336 117.5,755.5 Z"/></g>
<g><path style="opacity:1" fill="#418384" d="M 112.5,764.5 C 111.59,767.992 109.924,770.992 107.5,773.5C 108.41,770.008 110.076,767.008 112.5,764.5 Z"/></g>
<g><path style="opacity:1" fill="#418383" d="M 100.5,787.5 C 99.6236,791.582 97.9569,795.249 95.5,798.5C 96.3764,794.418 98.0431,790.751 100.5,787.5 Z"/></g>
<g><path style="opacity:1" fill="#418283" d="M 94.5,800.5 C 94.2927,803.241 93.2927,805.574 91.5,807.5C 91.7073,804.759 92.7073,802.426 94.5,800.5 Z"/></g>
<g><path style="opacity:1" fill="#428384" d="M 91.5,807.5 C 91.5979,809.553 90.9313,811.22 89.5,812.5C 89.4021,810.447 90.0687,808.78 91.5,807.5 Z"/></g>
<g><path style="opacity:1" fill="#408183" d="M 88.5,814.5 C 88.5979,816.553 87.9313,818.22 86.5,819.5C 86.4021,817.447 87.0687,815.78 88.5,814.5 Z"/></g>
<g><path style="opacity:1" fill="#418383" d="M 83.5,827.5 C 83.2671,830.542 82.2671,833.208 80.5,835.5C 80.7329,832.458 81.7329,829.792 83.5,827.5 Z"/></g>
<g><path style="opacity:1" fill="#418283" d="M 72.5,860.5 C 72.5905,863.152 71.9238,865.485 70.5,867.5C 70.4095,864.848 71.0762,862.515 72.5,860.5 Z"/></g>
<g><path style="opacity:1" fill="#418283" d="M 72.5,1121.5 C 73.9238,1123.51 74.5905,1125.85 74.5,1128.5C 73.0762,1126.49 72.4095,1124.15 72.5,1121.5 Z"/></g>
<g><path style="opacity:1" fill="#428484" d="M 81.5,1149.5 C 82.9313,1150.78 83.5979,1152.45 83.5,1154.5C 82.0687,1153.22 81.4021,1151.55 81.5,1149.5 Z"/></g>
<g><path style="opacity:1" fill="#428484" d="M 84.5,1157.5 C 85.9313,1158.78 86.5979,1160.45 86.5,1162.5C 85.0687,1161.22 84.4021,1159.55 84.5,1157.5 Z"/></g>
<g><path style="opacity:1" fill="#428484" d="M 86.5,1162.5 C 87.9313,1163.78 88.5979,1165.45 88.5,1167.5C 87.0687,1166.22 86.4021,1164.55 86.5,1162.5 Z"/></g>
<g><path style="opacity:1" fill="#418384" d="M 88.5,1167.5 C 89.9313,1168.78 90.5979,1170.45 90.5,1172.5C 89.0687,1171.22 88.4021,1169.55 88.5,1167.5 Z"/></g>
<g><path style="opacity:1" fill="#418384" d="M 91.5,1174.5 C 92.9313,1175.78 93.5979,1177.45 93.5,1179.5C 92.0687,1178.22 91.4021,1176.55 91.5,1174.5 Z"/></g>
<g><path style="opacity:1" fill="#418383" d="M 94.5,1181.5 C 96.6246,1184.09 97.9579,1187.09 98.5,1190.5C 96.3754,1187.91 95.0421,1184.91 94.5,1181.5 Z"/></g>
<g><path style="opacity:1" fill="#418384" d="M 109.5,1212.5 C 111.588,1214.34 112.921,1216.67 113.5,1219.5C 111.412,1217.66 110.079,1215.33 109.5,1212.5 Z"/></g>
<g><path style="opacity:1" fill="#418384" d="M 114.5,1221.5 C 116.25,1222.66 117.25,1224.33 117.5,1226.5C 115.75,1225.34 114.75,1223.67 114.5,1221.5 Z"/></g>
<g><path style="opacity:1" fill="#418283" d="M 118.5,1228.5 C 120.25,1229.66 121.25,1231.33 121.5,1233.5C 119.75,1232.34 118.75,1230.67 118.5,1228.5 Z"/></g>
<g><path style="opacity:1" fill="#418283" d="M 121.5,1233.5 C 123.25,1234.66 124.25,1236.33 124.5,1238.5C 122.75,1237.34 121.75,1235.67 121.5,1233.5 Z"/></g>
<g><path style="opacity:1" fill="#418383" d="M 124.5,1238.5 C 126.95,1240.63 128.617,1243.3 129.5,1246.5C 127.05,1244.37 125.383,1241.7 124.5,1238.5 Z"/></g>
<g><path style="opacity:1" fill="#418384" d="M 129.5,1246.5 C 130.906,1246.97 131.573,1247.97 131.5,1249.5C 130.094,1249.03 129.427,1248.03 129.5,1246.5 Z"/></g>
<g><path style="opacity:1" fill="#418384" d="M 131.5,1249.5 C 132.906,1249.97 133.573,1250.97 133.5,1252.5C 132.094,1252.03 131.427,1251.03 131.5,1249.5 Z"/></g>
<g><path style="opacity:1" fill="#418384" d="M 133.5,1252.5 C 134.906,1252.97 135.573,1253.97 135.5,1255.5C 134.094,1255.03 133.427,1254.03 133.5,1252.5 Z"/></g>
<g><path style="opacity:1" fill="#418384" d="M 135.5,1255.5 C 136.906,1255.97 137.573,1256.97 137.5,1258.5C 136.094,1258.03 135.427,1257.03 135.5,1255.5 Z"/></g>
<g><path style="opacity:1" fill="#418384" d="M 137.5,1258.5 C 138.906,1258.97 139.573,1259.97 139.5,1261.5C 138.094,1261.03 137.427,1260.03 137.5,1258.5 Z"/></g>
<g><path style="opacity:1" fill="#408283" d="M 139.5,1261.5 C 141.9,1263.3 143.567,1265.63 144.5,1268.5C 142.1,1266.7 140.433,1264.37 139.5,1261.5 Z"/></g>
<g><path style="opacity:1" fill="#418384" d="M 144.5,1268.5 C 146.262,1269.26 147.262,1270.6 147.5,1272.5C 145.738,1271.74 144.738,1270.4 144.5,1268.5 Z"/></g>
<g><path style="opacity:1" fill="#418384" d="M 147.5,1272.5 C 148.906,1272.97 149.573,1273.97 149.5,1275.5C 148.094,1275.03 147.427,1274.03 147.5,1272.5 Z"/></g>
<g><path style="opacity:1" fill="#3f8082" d="M 149.5,1275.5 C 151.262,1276.26 152.262,1277.6 152.5,1279.5C 150.738,1278.74 149.738,1277.4 149.5,1275.5 Z"/></g>
<g><path style="opacity:1" fill="#418383" d="M 152.5,1279.5 C 154.587,1280.58 155.92,1282.25 156.5,1284.5C 154.413,1283.42 153.08,1281.75 152.5,1279.5 Z"/></g>
<g><path style="opacity:1" fill="#3f8082" d="M 156.5,1284.5 C 158.262,1285.26 159.262,1286.6 159.5,1288.5C 157.738,1287.74 156.738,1286.4 156.5,1284.5 Z"/></g>
<g><path style="opacity:1" fill="#408283" d="M 159.5,1288.5 C 161.914,1289.91 163.581,1291.91 164.5,1294.5C 162.086,1293.09 160.419,1291.09 159.5,1288.5 Z"/></g>
<g><path style="opacity:1" fill="#418384" d="M 164.5,1294.5 C 166.914,1295.91 168.581,1297.91 169.5,1300.5C 167.086,1299.09 165.419,1297.09 164.5,1294.5 Z"/></g>
<g><path style="opacity:1" fill="#418383" d="M 169.5,1300.5 C 172.243,1302.24 174.243,1304.57 175.5,1307.5C 172.757,1305.76 170.757,1303.43 169.5,1300.5 Z"/></g>
<g><path style="opacity:1" fill="#3f8082" d="M 175.5,1307.5 C 178.903,1309.9 181.57,1312.9 183.5,1316.5C 180.097,1314.1 177.43,1311.1 175.5,1307.5 Z"/></g>
<g><path style="opacity:1" fill="#3f8082" d="M 185.5,1318.5 C 194.167,1326.5 202.5,1334.83 210.5,1343.5C 209.761,1343.63 209.094,1343.46 208.5,1343C 200.24,1335.25 192.574,1327.08 185.5,1318.5 Z"/></g>
<g><path style="opacity:1" fill="#408283" d="M 213.5,1346.5 C 217.1,1348.43 220.1,1351.1 222.5,1354.5C 218.9,1352.57 215.9,1349.9 213.5,1346.5 Z"/></g>
<g><path style="opacity:1" fill="#418283" d="M 223.5,1355.5 C 226.089,1356.42 228.089,1358.09 229.5,1360.5C 226.911,1359.58 224.911,1357.91 223.5,1355.5 Z"/></g>
<g><path style="opacity:1" fill="#418384" d="M 230.5,1361.5 C 232.749,1362.08 234.415,1363.41 235.5,1365.5C 233.251,1364.92 231.585,1363.59 230.5,1361.5 Z"/></g>
<g><path style="opacity:1" fill="#418283" d="M 236.5,1366.5 C 238.749,1367.08 240.415,1368.41 241.5,1370.5C 239.251,1369.92 237.585,1368.59 236.5,1366.5 Z"/></g>
<g><path style="opacity:1" fill="#418283" d="M 241.5,1370.5 C 243.749,1371.08 245.415,1372.41 246.5,1374.5C 244.251,1373.92 242.585,1372.59 241.5,1370.5 Z"/></g>
<g><path style="opacity:1" fill="#418384" d="M 246.5,1374.5 C 248.404,1374.74 249.738,1375.74 250.5,1377.5C 248.596,1377.26 247.262,1376.26 246.5,1374.5 Z"/></g>
<g><path style="opacity:1" fill="#428484" d="M 250.5,1377.5 C 252.404,1377.74 253.738,1378.74 254.5,1380.5C 252.596,1380.26 251.262,1379.26 250.5,1377.5 Z"/></g>
<g><path style="opacity:1" fill="#428484" d="M 254.5,1380.5 C 256.404,1380.74 257.738,1381.74 258.5,1383.5C 256.596,1383.26 255.262,1382.26 254.5,1380.5 Z"/></g>
<g><path style="opacity:1" fill="#418384" d="M 258.5,1383.5 C 260.404,1383.74 261.738,1384.74 262.5,1386.5C 260.596,1386.26 259.262,1385.26 258.5,1383.5 Z"/></g>
<g><path style="opacity:1" fill="#408283" d="M 262.5,1386.5 C 264.404,1386.74 265.738,1387.74 266.5,1389.5C 264.596,1389.26 263.262,1388.26 262.5,1386.5 Z"/></g>
<g><path style="opacity:1" fill="#428384" d="M 266.5,1389.5 C 268.027,1389.43 269.027,1390.09 269.5,1391.5C 267.973,1391.57 266.973,1390.91 266.5,1389.5 Z"/></g>
<g><path style="opacity:1" fill="#428384" d="M 269.5,1391.5 C 271.027,1391.43 272.027,1392.09 272.5,1393.5C 270.973,1393.57 269.973,1392.91 269.5,1391.5 Z"/></g>
<g><path style="opacity:1" fill="#418384" d="M 272.5,1393.5 C 275.37,1394.43 277.704,1396.1 279.5,1398.5C 276.63,1397.57 274.296,1395.9 272.5,1393.5 Z"/></g>
<g><path style="opacity:1" fill="#418383" d="M 279.5,1398.5 C 281.027,1398.43 282.027,1399.09 282.5,1400.5C 280.973,1400.57 279.973,1399.91 279.5,1398.5 Z"/></g>
<g><path style="opacity:1" fill="#418283" d="M 282.5,1400.5 C 285.704,1401.38 288.371,1403.05 290.5,1405.5C 287.296,1404.62 284.629,1402.95 282.5,1400.5 Z"/></g>
<g><path style="opacity:1" fill="#428384" d="M 290.5,1405.5 C 292.027,1405.43 293.027,1406.09 293.5,1407.5C 291.973,1407.57 290.973,1406.91 290.5,1405.5 Z"/></g>
<g><path style="opacity:1" fill="#418384" d="M 293.5,1407.5 C 295.674,1407.75 297.341,1408.75 298.5,1410.5C 296.326,1410.25 294.659,1409.25 293.5,1407.5 Z"/></g>
<g><path style="opacity:1" fill="#428484" d="M 298.5,1410.5 C 300.674,1410.75 302.341,1411.75 303.5,1413.5C 301.326,1413.25 299.659,1412.25 298.5,1410.5 Z"/></g>
<g><path style="opacity:1" fill="#428484" d="M 303.5,1413.5 C 305.674,1413.75 307.341,1414.75 308.5,1416.5C 306.326,1416.25 304.659,1415.25 303.5,1413.5 Z"/></g>
<g><path style="opacity:1" fill="#418384" d="M 308.5,1416.5 C 310.674,1416.75 312.341,1417.75 313.5,1419.5C 311.326,1419.25 309.659,1418.25 308.5,1416.5 Z"/></g>
<g><path style="opacity:1" fill="#418384" d="M 315.5,1420.5 C 318.331,1421.08 320.664,1422.41 322.5,1424.5C 319.669,1423.92 317.336,1422.59 315.5,1420.5 Z"/></g>
<g><path style="opacity:1" fill="#418384" d="M 326.5,1426.5 C 336.151,1430.66 345.484,1435.33 354.5,1440.5C 344.581,1436.87 335.248,1432.21 326.5,1426.5 Z"/></g>
<g><path style="opacity:1" fill="#418384" d="M 358.5,1442.5 C 361.241,1442.71 363.574,1443.71 365.5,1445.5C 362.759,1445.29 360.426,1444.29 358.5,1442.5 Z"/></g>
<g><path style="opacity:1" fill="#418384" d="M 367.5,1446.5 C 369.553,1446.4 371.22,1447.07 372.5,1448.5C 370.447,1448.6 368.78,1447.93 367.5,1446.5 Z"/></g>
<g><path style="opacity:1" fill="#418384" d="M 374.5,1449.5 C 376.553,1449.4 378.22,1450.07 379.5,1451.5C 377.447,1451.6 375.78,1450.93 374.5,1449.5 Z"/></g>
<g><path style="opacity:1" fill="#418384" d="M 379.5,1451.5 C 381.553,1451.4 383.22,1452.07 384.5,1453.5C 382.447,1453.6 380.78,1452.93 379.5,1451.5 Z"/></g>
<g><path style="opacity:1" fill="#418384" d="M 384.5,1453.5 C 386.553,1453.4 388.22,1454.07 389.5,1455.5C 387.447,1455.6 385.78,1454.93 384.5,1453.5 Z"/></g>
<g><path style="opacity:1" fill="#418283" d="M 389.5,1455.5 C 391.553,1455.4 393.22,1456.07 394.5,1457.5C 392.447,1457.6 390.78,1456.93 389.5,1455.5 Z"/></g>
<g><path style="opacity:1" fill="#418383" d="M 397.5,1458.5 C 400.542,1458.73 403.208,1459.73 405.5,1461.5C 402.458,1461.27 399.792,1460.27 397.5,1458.5 Z"/></g>
<g><path style="opacity:1" fill="#408283" d="M 426.5,1468.5 C 429.152,1468.41 431.485,1469.08 433.5,1470.5C 430.848,1470.59 428.515,1469.92 426.5,1468.5 Z"/></g>
</svg>
