<svg width="14" height="17" viewBox="0 0 14 17" fill="none" xmlns="http://www.w3.org/2000/svg">
<mask id="mask0_163_51" style="mask-type:alpha" maskUnits="userSpaceOnUse" x="-4" y="-2" width="21" height="21">
<rect x="-3.39998" y="-1.69999" width="20.4" height="20.4" fill="#D9D9D9"/>
</mask>
<g mask="url(#mask0_163_51)">
<path d="M0 14.45V12.75H1.7V6.8C1.7 5.62417 2.05417 4.57938 2.7625 3.66563C3.47084 2.75188 4.39167 2.15333 5.525 1.87V1.275C5.525 0.920834 5.64896 0.619792 5.89688 0.371875C6.1448 0.123958 6.44584 0 6.8 0C7.15417 0 7.45521 0.123958 7.70313 0.371875C7.95105 0.619792 8.075 0.920834 8.075 1.275V1.87C9.20834 2.15333 10.1292 2.75188 10.8375 3.66563C11.5458 4.57938 11.9 5.62417 11.9 6.8V12.75H13.6V14.45H0ZM6.8 17C6.3325 17 5.9323 16.8336 5.59938 16.5006C5.26646 16.1677 5.1 15.7675 5.1 15.3H8.5C8.5 15.7675 8.33355 16.1677 8.00063 16.5006C7.66771 16.8336 7.2675 17 6.8 17ZM3.4 12.75H10.2V6.8C10.2 5.865 9.86709 5.06459 9.20126 4.39875C8.53542 3.73292 7.735 3.4 6.8 3.4C5.865 3.4 5.06459 3.73292 4.39875 4.39875C3.73292 5.06459 3.4 5.865 3.4 6.8V12.75Z" fill="#1C1B1F"/>
</g>
</svg>
