<?xml version="1.0" encoding="UTF-8"?>
<!DOCTYPE svg PUBLIC "-//W3C//DTD SVG 1.1//EN" "http://www.w3.org/Graphics/SVG/1.1/DTD/svg11.dtd">
<svg xmlns="http://www.w3.org/2000/svg" version="1.1" width="896px" height="871px" style="shape-rendering:geometricPrecision; text-rendering:geometricPrecision; image-rendering:optimizeQuality; fill-rule:evenodd; clip-rule:evenodd" xmlns:xlink="http://www.w3.org/1999/xlink">
<g><path style="opacity:0.996" fill="#6b9896" d="M 411.5,-0.5 C 418.833,-0.5 426.167,-0.5 433.5,-0.5C 488.009,3.66681 531.842,27.3335 565,70.5C 594.485,115.349 599.151,162.682 579,212.5C 558.545,253.618 526.711,282.118 483.5,298C 416.05,319.043 355.384,307.043 301.5,262C 254.015,214.213 242.182,158.713 266,95.5C 290.374,46.8142 329.207,16.3142 382.5,4C 392.248,2.07747 401.915,0.577471 411.5,-0.5 Z"/></g>
<g><path style="opacity:0.988" fill="#6b9896" d="M 895.5,353.5 C 895.5,359.167 895.5,364.833 895.5,370.5C 888.826,396.997 871.826,412.164 844.5,416C 815.518,418.265 794.684,406.432 782,380.5C 773.854,348.627 784.687,325.794 814.5,312C 842.12,302.984 865.62,309.151 885,330.5C 889.967,337.596 893.467,345.263 895.5,353.5 Z"/></g>
<g><path style="opacity:0.999" fill="#6b9896" d="M 692.5,833.5 C 670.117,773.044 638.117,718.544 596.5,670C 582.621,676.865 571.454,687.032 563,700.5C 543.099,736.697 545.433,771.364 570,804.5C 596.751,833.975 629.918,845.808 669.5,840C 677.215,838.321 684.881,836.488 692.5,834.5C 697.407,846.099 701.407,858.099 704.5,870.5C 469.5,870.5 234.5,870.5 -0.5,870.5C -0.5,734.833 -0.5,599.167 -0.5,463.5C 135.365,440.649 266.032,457.483 391.5,514C 470.555,551.051 538.722,602.551 596,668.5C 632.747,648.75 669.58,648.583 706.5,668C 749.96,696.377 763.127,735.211 746,784.5C 734.686,807.981 716.853,824.315 692.5,833.5 Z"/></g>
<g><path style="opacity:1" fill="#92b4aa" d="M 692.5,833.5 C 692.5,833.833 692.5,834.167 692.5,834.5C 684.881,836.488 677.215,838.321 669.5,840C 629.918,845.808 596.751,833.975 570,804.5C 545.433,771.364 543.099,736.697 563,700.5C 571.454,687.032 582.621,676.865 596.5,670C 638.117,718.544 670.117,773.044 692.5,833.5 Z"/></g>
</svg>
