<svg width="43" height="43" viewBox="0 0 43 43" fill="none" xmlns="http://www.w3.org/2000/svg">
<path d="M0 15C0 6.71573 6.71573 0 15 0H28C36.2843 0 43 6.71573 43 15V28C43 36.2843 36.2843 43 28 43H15C6.71573 43 0 36.2843 0 28V15Z" fill="#68B2A0"/>
<mask id="mask0_135_106" style="mask-type:alpha" maskUnits="userSpaceOnUse" x="10" y="10" width="24" height="24">
<rect x="10" y="10" width="24" height="24" fill="#D9D9D9"/>
</mask>
<g mask="url(#mask0_135_106)">
<path d="M15.85 27.1C16.7 26.45 17.65 25.9375 18.7 25.5625C19.75 25.1875 20.85 25 22 25C23.15 25 24.25 25.1875 25.3 25.5625C26.35 25.9375 27.3 26.45 28.15 27.1C28.7333 26.4167 29.1875 25.6417 29.5125 24.775C29.8375 23.9083 30 22.9833 30 22C30 19.7833 29.2208 17.8958 27.6625 16.3375C26.1042 14.7792 24.2167 14 22 14C19.7833 14 17.8958 14.7792 16.3375 16.3375C14.7792 17.8958 14 19.7833 14 22C14 22.9833 14.1625 23.9083 14.4875 24.775C14.8125 25.6417 15.2667 26.4167 15.85 27.1ZM22 23C21.0167 23 20.1875 22.6625 19.5125 21.9875C18.8375 21.3125 18.5 20.4833 18.5 19.5C18.5 18.5167 18.8375 17.6875 19.5125 17.0125C20.1875 16.3375 21.0167 16 22 16C22.9833 16 23.8125 16.3375 24.4875 17.0125C25.1625 17.6875 25.5 18.5167 25.5 19.5C25.5 20.4833 25.1625 21.3125 24.4875 21.9875C23.8125 22.6625 22.9833 23 22 23ZM22 32C20.6167 32 19.3167 31.7375 18.1 31.2125C16.8833 30.6875 15.825 29.975 14.925 29.075C14.025 28.175 13.3125 27.1167 12.7875 25.9C12.2625 24.6833 12 23.3833 12 22C12 20.6167 12.2625 19.3167 12.7875 18.1C13.3125 16.8833 14.025 15.825 14.925 14.925C15.825 14.025 16.8833 13.3125 18.1 12.7875C19.3167 12.2625 20.6167 12 22 12C23.3833 12 24.6833 12.2625 25.9 12.7875C27.1167 13.3125 28.175 14.025 29.075 14.925C29.975 15.825 30.6875 16.8833 31.2125 18.1C31.7375 19.3167 32 20.6167 32 22C32 23.3833 31.7375 24.6833 31.2125 25.9C30.6875 27.1167 29.975 28.175 29.075 29.075C28.175 29.975 27.1167 30.6875 25.9 31.2125C24.6833 31.7375 23.3833 32 22 32ZM22 30C22.8833 30 23.7167 29.8708 24.5 29.6125C25.2833 29.3542 26 28.9833 26.65 28.5C26 28.0167 25.2833 27.6458 24.5 27.3875C23.7167 27.1292 22.8833 27 22 27C21.1167 27 20.2833 27.1292 19.5 27.3875C18.7167 27.6458 18 28.0167 17.35 28.5C18 28.9833 18.7167 29.3542 19.5 29.6125C20.2833 29.8708 21.1167 30 22 30ZM22 21C22.4333 21 22.7917 20.8583 23.075 20.575C23.3583 20.2917 23.5 19.9333 23.5 19.5C23.5 19.0667 23.3583 18.7083 23.075 18.425C22.7917 18.1417 22.4333 18 22 18C21.5667 18 21.2083 18.1417 20.925 18.425C20.6417 18.7083 20.5 19.0667 20.5 19.5C20.5 19.9333 20.6417 20.2917 20.925 20.575C21.2083 20.8583 21.5667 21 22 21Z" fill="#1C1B1F"/>
</g>
</svg>
