<svg width="43" height="40" viewBox="0 0 43 40" fill="none" xmlns="http://www.w3.org/2000/svg">
<path d="M0 15C0 6.71573 6.71573 0 15 0H28C36.2843 0 43 6.71573 43 15V24.0909C43 32.3752 36.2843 39.0909 28 39.0909H15C6.71573 39.0909 0 32.3752 0 24.0909V15Z" fill="#68B2A0"/>
<path d="M21 27.6591V21.4318L15 18.2727V24.5L21 27.6591ZM23 27.6591L29 24.5V18.2727L23 21.4318V27.6591ZM21 29.75L14 26.0909C13.6833 25.9242 13.4375 25.7045 13.2625 25.4318C13.0875 25.1591 13 24.8561 13 24.5227V17.2954C13 16.9621 13.0875 16.6591 13.2625 16.3864C13.4375 16.1136 13.6833 15.8939 14 15.7273L21 12.0682C21.3167 11.9015 21.65 11.8182 22 11.8182C22.35 11.8182 22.6833 11.9015 23 12.0682L30 15.7273C30.3167 15.8939 30.5625 16.1136 30.7375 16.3864C30.9125 16.6591 31 16.9621 31 17.2954V24.5227C31 24.8561 30.9125 25.1591 30.7375 25.4318C30.5625 25.7045 30.3167 25.9242 30 26.0909L23 29.75C22.6833 29.9167 22.35 30 22 30C21.65 30 21.3167 29.9167 21 29.75ZM26 17.75L27.925 16.75L22 13.6364L20.05 14.6591L26 17.75ZM22 19.8636L23.95 18.8409L18.025 15.7273L16.075 16.75L22 19.8636Z" fill="#1C1B1F"/>
</svg>
